# xmcd CD database file
#
# Track frame offsets:
#	150
#	11317
#	22855
#	35307
#	46290
#	56732
#	68255
#	78952
#	89255
#	101582
#
# Disc length: 1469 seconds
#
# Revision: 1
# Processed by: cddbd v1.4PL0 Copyright (c) Steve Scherf et al.
# Submitted via: CDex 1.40Release
#
DISCID=6405bb0a
DTITLE=Various Artist - Sought After Soul Cd 4
DYEAR=1900
DGENRE=Soul
TTITLE0=Conny Van Dyke - Don't Do Nothing I Wouldn't Do
TTITLE1=The Brooks Brothers - Lookin' For A Woman
TTITLE2=Soul Communicators - Those Lonely Nights
TTITLE3=The Executive Four  - I Gotta Good Thing Going
TTITLE4=The New Wanderers - Ain't Gonna Do You No Harm
TTITLE5=The Checkerboard Squares - Double Cookin'
TTITLE6=Little Stanley - The Stran
TTITLE7=The Tokays - Baby Baby Baby
TTITLE8=Steve Mancha - He Stole The Love That Was Mine
TTITLE9=Bob and Fred - I'll Be On My Way
EXTD=ID3G: 42
EXTT0=
EXTT1=
EXTT2=
EXTT3=
EXTT4=
EXTT5=
EXTT6=
EXTT7=
EXTT8=
EXTT9=
PLAYORDER=
